<svg width="48" height="48" viewBox="0 0 48 48" fill="none" xmlns="http://www.w3.org/2000/svg">
<g clip-path="url(#clip0_8883_3176)">
<path d="M30 14H38.646C39.464 14 40.2 14.498 40.502 15.258L43.714 23.286C43.902 23.758 44 24.262 44 24.77V36.666C44 37.1964 43.7893 37.7051 43.4142 38.0802C43.0391 38.4553 42.5304 38.666 42 38.666H38.338" stroke="#ADADAD" stroke-width="1.5" stroke-linecap="round" stroke-linejoin="round"/>
<path d="M44 28H36V20H42.4" stroke="#ADADAD" stroke-width="1.5" stroke-linecap="round" stroke-linejoin="round"/>
<path d="M31.9998 38.8398H16.3398" stroke="#ADADAD" stroke-width="1.5" stroke-linecap="round" stroke-linejoin="round"/>
<path d="M25.112 10H28C28.5304 10 29.0391 10.2107 29.4142 10.5858C29.7893 10.9609 30 11.4696 30 12V30H4" stroke="#ADADAD" stroke-width="1.5" stroke-linecap="round" stroke-linejoin="round"/>
<path d="M10 38.832H6C5.46957 38.832 4.96086 38.6213 4.58579 38.2462C4.21071 37.8711 4 37.3624 4 36.832V12C4 11.4696 4.21071 10.9609 4.58579 10.5858C4.96086 10.2107 5.46957 10 6 10H8.476" stroke="#ADADAD" stroke-width="1.5" stroke-linecap="round" stroke-linejoin="round"/>
<path d="M37.4078 36.5919C37.702 36.8861 37.9353 37.2353 38.0945 37.6196C38.2537 38.004 38.3357 38.4159 38.3357 38.8319C38.3357 39.2479 38.2537 39.6598 38.0945 40.0442C37.9353 40.4285 37.702 40.7777 37.4078 41.0719C37.1137 41.3661 36.7645 41.5994 36.3801 41.7586C35.9958 41.9178 35.5838 41.9997 35.1678 41.9997C34.7518 41.9997 34.3399 41.9178 33.9556 41.7586C33.5712 41.5994 33.222 41.3661 32.9278 41.0719C32.6337 40.7777 32.4003 40.4285 32.2411 40.0442C32.0819 39.6598 32 39.2479 32 38.8319C32 38.4159 32.0819 38.004 32.2411 37.6196C32.4003 37.2353 32.6337 36.8861 32.9278 36.5919C33.222 36.2977 33.5712 36.0644 33.9556 35.9052C34.3399 35.746 34.7518 35.6641 35.1678 35.6641C35.5838 35.6641 35.9958 35.746 36.3801 35.9052C36.7645 36.0644 37.1137 36.2977 37.4078 36.5919" stroke="black" stroke-width="1.5" stroke-linecap="round" stroke-linejoin="round"/>
<path d="M15.4083 36.5919C15.7025 36.8858 15.9359 37.2348 16.0952 37.6189C16.2545 38.003 16.3366 38.4147 16.3368 38.8305C16.3369 39.2464 16.2552 39.6581 16.0963 40.0424C15.9373 40.4266 15.7042 40.7758 15.4103 41.07C15.1164 41.3641 14.7675 41.5975 14.3834 41.7568C13.9993 41.9161 13.5876 41.9982 13.1717 41.9984C12.7559 41.9986 12.3441 41.9168 11.9599 41.7579C11.5757 41.5989 11.2265 41.3658 10.9323 41.0719C10.3382 40.4784 10.0043 39.6732 10.0039 38.8334C10.0035 37.9936 10.3368 37.188 10.9303 36.594C11.5239 35.9999 12.3291 35.6659 13.1689 35.6655C14.0087 35.6652 14.8142 35.9984 15.4083 36.5919" stroke="black" stroke-width="1.5" stroke-linecap="round" stroke-linejoin="round"/>
<path d="M16.7936 18.636C14.5875 18.636 12.4718 17.7596 10.9119 16.1997C9.35194 14.6398 8.47559 12.5241 8.47559 10.318C8.47559 5.818 12.3016 1.996 16.7996 2C17.8919 2.0004 18.9735 2.21594 19.9825 2.63432C20.9916 3.0527 21.9083 3.66573 22.6804 4.43841C23.4525 5.21109 24.0649 6.12828 24.4826 7.13761C24.9002 8.14695 25.115 9.22867 25.1146 10.321C25.1142 11.4133 24.8987 12.4949 24.4803 13.5039C24.0619 14.513 23.4489 15.4297 22.6762 16.2018C21.9035 16.974 20.9863 17.5863 19.977 18.004C18.9676 18.4216 17.8859 18.6364 16.7936 18.636" stroke="black" stroke-width="1.5"/>
<path d="M20.4897 8.47021L15.8677 13.0922L13.0957 10.3182" stroke="#68D237" stroke-width="1.5" stroke-linecap="round" stroke-linejoin="round"/>
</g>
<defs>
<clipPath id="clip0_8883_3176">
<rect width="48" height="48" fill="white"/>
</clipPath>
</defs>
</svg>
