<svg width="38" height="40" viewBox="0 0 38 40" fill="none" xmlns="http://www.w3.org/2000/svg">
<path d="M5 6.5H13" stroke="#68D237" stroke-width="1.5" stroke-linecap="round" stroke-linejoin="round"/>
<path d="M2.47754 17.924L4.75954 19.35C6.03091 20.1449 7.50013 20.5664 8.99954 20.5664C10.499 20.5664 11.9682 20.1449 13.2395 19.35L15.5215 17.924" stroke="black" stroke-width="1.5" stroke-linecap="round" stroke-linejoin="round"/>
<path d="M8 0H10C10.5304 0 11.0391 0.210714 11.4142 0.585786C11.7893 0.960859 12 1.46957 12 2V6.17C12 9.986 13.036 13.73 15 17C16.9632 20.2713 18.0002 24.0148 18 27.83V36C18 37.0609 17.5786 38.0783 16.8284 38.8284C16.0783 39.5786 15.0609 40 14 40H4C2.93913 40 1.92172 39.5786 1.17157 38.8284C0.421427 38.0783 0 37.0609 0 36V27.83C0 24.014 1.036 20.27 3 17C4.96323 13.7287 6.00021 9.9852 6 6.17V2C6 1.46957 6.21071 0.960859 6.58579 0.585786C6.96086 0.210714 7.46957 0 8 0Z" stroke="#ADADAD" stroke-width="1.5" stroke-linecap="round" stroke-linejoin="round"/>
<path d="M31 30V40" stroke="black" stroke-width="1.5" stroke-linecap="round" stroke-linejoin="round"/>
<path d="M27 40H35" stroke="black" stroke-width="1.5" stroke-linecap="round" stroke-linejoin="round"/>
<path d="M31.0002 30C29.9923 30.0012 28.996 29.7844 28.0797 29.3645C27.1635 28.9445 26.3488 28.3314 25.6917 27.5672C25.0346 26.8029 24.5506 25.9056 24.2727 24.9367C23.9949 23.9678 23.9299 22.9503 24.0822 21.954L25.9762 9.694C26.1262 8.72 26.9682 8 27.9582 8H34.4822C34.9724 7.99903 35.446 8.17815 35.8128 8.50335C36.1797 8.82855 36.4143 9.27717 36.4722 9.764L37.9502 22.194C38.0658 23.1748 37.9722 24.1689 37.6756 25.1109C37.379 26.0528 36.8861 26.9212 36.2294 27.6588C35.5727 28.3964 34.7671 28.9864 33.8657 29.39C32.9644 29.7935 31.9877 30.0014 31.0002 30Z" stroke="#ADADAD" stroke-width="1.5" stroke-linecap="round" stroke-linejoin="round"/>
<path d="M37.22 16H25" stroke="#68D237" stroke-width="1.5" stroke-linecap="round" stroke-linejoin="round"/>
</svg>
