<svg width="20" height="16" viewBox="0 0 20 16" fill="none" xmlns="http://www.w3.org/2000/svg">
<path fill-rule="evenodd" clip-rule="evenodd" d="M5.16624 3.29732C3.70869 4.42372 2.42792 5.97349 1.52748 7.63873L0.867763 7.28201L1.52781 7.63812C1.49077 7.70678 1.49073 7.79198 1.5277 7.86067C2.42813 9.52628 3.70883 11.0761 5.16627 12.2026C6.62791 13.3323 8.21814 14 9.74975 14C11.2814 14 12.8716 13.3323 14.3333 12.2027C15.7908 11.0763 17.0716 9.52651 17.972 7.86127C18.0087 7.79277 18.0087 7.70795 17.9719 7.63949C17.0714 5.97382 15.7907 4.42389 14.3332 3.29742C12.8716 2.16774 11.2814 1.5 9.74975 1.5C8.21813 1.5 6.6279 2.16774 5.16624 3.29732ZM4.24901 2.11043C5.8816 0.848759 7.78637 0 9.74975 0C11.7131 0 13.6179 0.848763 15.2505 2.11058C16.8872 3.37557 18.3 5.09208 19.2915 6.92635L19.2918 6.92688C19.5687 7.44015 19.5687 8.06085 19.2918 8.57412L19.2915 8.57473C18.2999 10.4085 16.8872 12.1247 15.2505 13.3896C13.6179 14.6512 11.7131 15.5 9.74975 15.5C7.78636 15.5 5.88159 14.6512 4.24898 13.3894C2.61227 12.1244 1.19953 10.4079 0.207979 8.57365L0.207688 8.57312C-0.0692294 8.05985 -0.0692294 7.43915 0.207688 6.92588L0.208021 6.92527C1.19958 5.09151 2.61231 3.37528 4.24901 2.11043Z" fill="#68D237"/>
<path fill-rule="evenodd" clip-rule="evenodd" d="M11.3657 6.13371C10.4731 5.24109 9.02584 5.24109 8.13322 6.13371C7.2406 7.02633 7.2406 8.47356 8.13322 9.36618C9.02584 10.2588 10.4731 10.2588 11.3657 9.36618C12.2583 8.47356 12.2583 7.02633 11.3657 6.13371ZM12.3759 5.12354C10.9253 3.67301 8.57357 3.67301 7.12305 5.12354C5.67253 6.57406 5.67253 8.92583 7.12305 10.3763C8.57357 11.8269 10.9253 11.8269 12.3759 10.3763C13.8264 8.92583 13.8264 6.57406 12.3759 5.12354Z" fill="#68D237"/>
</svg>
