<svg width="13" height="13" viewBox="0 0 13 13" fill="none" xmlns="http://www.w3.org/2000/svg">
<path fill-rule="evenodd" clip-rule="evenodd" d="M3.5 1C2.83696 1 2.20107 1.26339 1.73223 1.73223C1.26339 2.20107 1 2.83696 1 3.5V9.50267C1 10.165 1.26311 10.8002 1.73145 11.2685C2.19979 11.7369 2.835 12 3.49733 12H9.50267C10.1649 12 10.8 11.737 11.2684 11.2687C11.7367 10.8006 11.9998 10.1655 12 9.50333C12 9.5033 12 9.50337 12 9.50333V3.49733C12 3.16938 11.9354 2.84464 11.8099 2.54165C11.6844 2.23866 11.5004 1.96335 11.2685 1.73145C11.0366 1.49955 10.7613 1.3156 10.4584 1.1901C10.1554 1.0646 9.83062 1 9.50267 1H3.5ZM3.5 0C2.57174 0 1.6815 0.368749 1.02513 1.02513C0.368749 1.6815 0 2.57174 0 3.5V9.50267C0 10.4302 0.368468 11.3198 1.02435 11.9757C1.68022 12.6315 2.56978 13 3.49733 13H9.50267C10.4301 13 11.3195 12.6316 11.9754 11.9759C12.6312 11.3202 12.9998 10.4309 13 9.50344V3.49733C13 3.03806 12.9095 2.58328 12.7338 2.15896C12.558 1.73465 12.3004 1.3491 11.9757 1.02435C11.6509 0.699588 11.2654 0.441976 10.841 0.266219C10.4167 0.0904613 9.96194 0 9.50267 0H3.5Z" fill="white"/>
<path fill-rule="evenodd" clip-rule="evenodd" d="M3.91309 5.40002C4.18923 5.40002 4.41309 5.62388 4.41309 5.90002V9.50002C4.41309 9.77617 4.18923 10 3.91309 10C3.63694 10 3.41309 9.77617 3.41309 9.50002V5.90002C3.41309 5.62388 3.63694 5.40002 3.91309 5.40002Z" fill="white"/>
<path fill-rule="evenodd" clip-rule="evenodd" d="M7.8125 6.40002C7.54728 6.40002 7.29293 6.50538 7.10539 6.69292C6.91786 6.88045 6.8125 7.13481 6.8125 7.40002V9.50002C6.8125 9.77617 6.58864 10 6.3125 10C6.03636 10 5.8125 9.77617 5.8125 9.50002V7.40002C5.8125 6.86959 6.02321 6.36088 6.39829 5.98581C6.77336 5.61074 7.28207 5.40002 7.8125 5.40002C8.34293 5.40002 8.85164 5.61074 9.22671 5.98581C9.60179 6.36088 9.8125 6.86959 9.8125 7.40002V9.50002C9.8125 9.77617 9.58864 10 9.3125 10C9.03636 10 8.8125 9.77617 8.8125 9.50002V7.40002C8.8125 7.13481 8.70714 6.88045 8.51961 6.69292C8.33207 6.50538 8.07772 6.40002 7.8125 6.40002Z" fill="white"/>
<path fill-rule="evenodd" clip-rule="evenodd" d="M3.90981 3.22535C3.99541 3.22497 4.08025 3.2415 4.15944 3.274C4.23863 3.30649 4.31063 3.3543 4.37129 3.4147C4.43196 3.4751 4.4801 3.54689 4.51294 3.62593C4.54579 3.70498 4.5627 3.78974 4.5627 3.87535C4.56269 4.00378 4.52464 4.12934 4.45335 4.23617C4.38205 4.34299 4.28071 4.42631 4.1621 4.47559C4.04349 4.52487 3.91295 4.53791 3.78695 4.51306C3.66094 4.48822 3.54512 4.4266 3.4541 4.33598C3.36308 4.24536 3.30094 4.12981 3.27554 4.00392C3.25013 3.87802 3.26259 3.74742 3.31135 3.6286C3.3601 3.50978 3.44297 3.40806 3.54948 3.33629C3.65599 3.26453 3.78137 3.22592 3.90981 3.22535Z" fill="white"/>
</svg>
