<svg width="22" height="19" viewBox="0 0 22 19" fill="none" xmlns="http://www.w3.org/2000/svg">
<path d="M12.75 0C13.2141 0 13.6591 0.184507 13.9873 0.512695C14.3155 0.840884 14.5 1.28587 14.5 1.75V3H18.0732C18.7881 3.0001 19.4322 3.43564 19.6973 4.10156L21.3037 8.11523C21.4324 8.43824 21.5 8.78449 21.5 9.13477V15.083C21.5 15.5471 21.3155 15.9921 20.9873 16.3203C20.6591 16.6485 20.2141 16.833 19.75 16.833H18.5703C18.5475 16.9096 18.5209 16.9855 18.4902 17.0596C18.3729 17.3426 18.201 17.5998 17.9844 17.8164C17.7677 18.033 17.5106 18.205 17.2275 18.3223C16.9444 18.4396 16.6405 18.5 16.334 18.5C16.0275 18.5 15.7236 18.4396 15.4404 18.3223C15.1574 18.205 14.9002 18.033 14.6836 17.8164C14.467 17.5998 14.295 17.3426 14.1777 17.0596C14.1588 17.0139 14.1439 16.9665 14.1279 16.9199H7.54004C7.52429 16.966 7.50986 17.0125 7.49121 17.0576C7.37408 17.3407 7.20191 17.5987 6.98535 17.8154C6.76885 18.032 6.51141 18.204 6.22852 18.3213C5.94558 18.4386 5.64222 18.4989 5.33594 18.499C5.02969 18.4991 4.72636 18.4393 4.44336 18.3223C4.16023 18.2051 3.9023 18.033 3.68555 17.8164C3.43003 17.561 3.24202 17.2517 3.12793 16.916H1.75C1.28587 16.916 0.840882 16.7315 0.512695 16.4033C0.184511 16.0751 4.04098e-06 15.6301 0 15.166V9.75C0 9.33579 0.335786 9 0.75 9C1.16421 9 1.5 9.33579 1.5 9.75V11H13V1.75C13 1.6837 12.9736 1.62013 12.9268 1.57324C12.8799 1.52636 12.8163 1.5 12.75 1.5H8.75C8.33579 1.5 8 1.16421 8 0.75C8 0.335786 8.33579 0 8.75 0H12.75ZM16.334 15.332C16.2245 15.332 16.1158 15.3536 16.0146 15.3955C15.9135 15.4374 15.8215 15.4988 15.7441 15.5762C15.6667 15.6536 15.6054 15.7456 15.5635 15.8467C15.5216 15.9479 15.5 16.0565 15.5 16.166C15.5 16.2755 15.5216 16.3842 15.5635 16.4854C15.6054 16.5865 15.6667 16.6785 15.7441 16.7559C15.8215 16.8333 15.9135 16.8946 16.0146 16.9365C16.1158 16.9784 16.2245 17 16.334 17C16.4435 17 16.5521 16.9784 16.6533 16.9365C16.7544 16.8946 16.8464 16.8333 16.9238 16.7559C17.0012 16.6785 17.0626 16.5865 17.1045 16.4854C17.1464 16.3842 17.168 16.2755 17.168 16.166C17.168 16.0565 17.1464 15.9479 17.1045 15.8467C17.0626 15.7456 17.0012 15.6536 16.9238 15.5762C16.8464 15.4988 16.7544 15.4374 16.6533 15.3955C16.5521 15.3536 16.4435 15.332 16.334 15.332ZM5.33496 15.333C5.11398 15.3331 4.90131 15.4208 4.74512 15.5771C4.58918 15.7334 4.50194 15.9453 4.50195 16.166C4.50205 16.387 4.58977 16.5997 4.74609 16.7559C4.82344 16.8331 4.9156 16.8938 5.0166 16.9355C5.11758 16.9773 5.22569 16.999 5.33496 16.999C5.44438 16.999 5.55323 16.9775 5.6543 16.9355C5.75533 16.8936 5.84749 16.8323 5.9248 16.7549C6.00204 16.6775 6.0627 16.5854 6.10449 16.4844C6.14627 16.3834 6.16796 16.2753 6.16797 16.166C6.16792 16.0566 6.14641 15.9478 6.10449 15.8467C6.06258 15.7457 6.0012 15.6535 5.92383 15.5762C5.7676 15.4202 5.55572 15.333 5.33496 15.333ZM14.5 11.75C14.5 12.1642 14.1642 12.5 13.75 12.5H1.5V15.166C1.5 15.2323 1.52636 15.2959 1.57324 15.3428C1.62013 15.3897 1.6837 15.416 1.75 15.416H3.12793C3.24183 15.0808 3.42964 14.7718 3.68457 14.5166C4.12192 14.079 4.71527 13.8333 5.33398 13.833C5.95238 13.8327 6.54573 14.0778 6.9834 14.5146L6.98438 14.5156C7.20102 14.7321 7.3729 14.9895 7.49023 15.2725C7.51027 15.3208 7.52627 15.3705 7.54297 15.4199H14.125C14.1417 15.3706 14.1578 15.3207 14.1777 15.2725C14.295 14.9894 14.467 14.7323 14.6836 14.5156C14.9002 14.299 15.1574 14.1271 15.4404 14.0098C15.7236 13.8925 16.0275 13.832 16.334 13.832C16.6405 13.832 16.9444 13.8925 17.2275 14.0098C17.5106 14.127 17.7677 14.299 17.9844 14.5156C18.201 14.7323 18.3729 14.9894 18.4902 15.2725C18.4984 15.2921 18.5041 15.3131 18.5117 15.333H19.75C19.8163 15.333 19.8799 15.3066 19.9268 15.2598C19.9736 15.2129 20 15.1493 20 15.083V11.5H16.75C16.3358 11.5 16 11.1642 16 10.75V6.75C16 6.33579 16.3358 6 16.75 6H18.8418L18.3047 4.65723L18.3037 4.65625C18.2666 4.56284 18.1759 4.5001 18.0732 4.5H14.5V11.75ZM17.5 10H20V9.13477C20 8.97736 19.9693 8.81961 19.9102 8.6709L19.4414 7.5H17.5V10ZM1.75 6C2.16421 6 2.5 6.33579 2.5 6.75C2.5 7.16421 2.16421 7.5 1.75 7.5H0.75C0.335786 7.5 0 7.16421 0 6.75C0 6.33579 0.335786 6 0.75 6H1.75ZM3.75 3C4.16421 3 4.5 3.33579 4.5 3.75C4.5 4.16421 4.16421 4.5 3.75 4.5H0.75C0.335786 4.5 0 4.16421 0 3.75C0 3.33579 0.335786 3 0.75 3H3.75ZM5.75 0C6.16421 0 6.5 0.335786 6.5 0.75C6.5 1.16421 6.16421 1.5 5.75 1.5H0.75C0.335786 1.5 0 1.16421 0 0.75C0 0.335786 0.335786 0 0.75 0H5.75Z" fill="#858585"/>
</svg>
