<svg width="48" height="48" viewBox="0 0 48 48" fill="none" xmlns="http://www.w3.org/2000/svg">
<path d="M10 20.766V10C10.0002 9.62868 10.1038 9.26474 10.2991 8.94895C10.4944 8.63316 10.7738 8.37798 11.106 8.212L15.106 6.212C15.4108 6.05967 15.7495 5.98776 16.09 6.00309C16.4304 6.01843 16.7613 6.12049 17.0512 6.29961C17.3411 6.47873 17.5805 6.72895 17.7465 7.02654C17.9126 7.32413 17.9998 7.65922 18 8V20.764" stroke="#68D237" stroke-width="1.5" stroke-linecap="round" stroke-linejoin="round"/>
<path d="M10 20.766H18C18.5304 20.766 19.0391 20.9767 19.4142 21.3518C19.7893 21.7269 20 22.2356 20 22.766V38C20 39.0609 19.5786 40.0783 18.8284 40.8284C18.0783 41.5786 17.0609 42 16 42H12C10.9391 42 9.92172 41.5786 9.17157 40.8284C8.42143 40.0783 8 39.0609 8 38V22.766C8 22.2356 8.21071 21.7269 8.58579 21.3518C8.96086 20.9767 9.46957 20.766 10 20.766Z" stroke="#ADADAD" stroke-width="1.5" stroke-linecap="round" stroke-linejoin="round"/>
<path d="M32 24H36C37.0609 24 38.0783 24.4214 38.8284 25.1716C39.5786 25.9217 40 26.9391 40 28V40C40 40.5304 39.7893 41.0391 39.4142 41.4142C39.0391 41.7893 38.5304 42 38 42H30C29.4696 42 28.9609 41.7893 28.5858 41.4142C28.2107 41.0391 28 40.5304 28 40V28C28 26.9391 28.4214 25.9217 29.1716 25.1716C29.9217 24.4214 30.9391 24 32 24V24Z" stroke="#ADADAD" stroke-width="1.5" stroke-linecap="round" stroke-linejoin="round"/>
<path d="M20 30H8" stroke="black" stroke-width="1.5" stroke-linecap="round" stroke-linejoin="round"/>
</svg>
