<svg width="16" height="16" viewBox="0 0 16 16" fill="none" xmlns="http://www.w3.org/2000/svg">
<path fill-rule="evenodd" clip-rule="evenodd" d="M2.54486 12.183H13.4545C13.5102 12.183 13.5552 12.1362 13.5552 12.0787V3.92209C13.5552 3.86413 13.5097 3.81702 13.4537 3.81702H2.54486C2.49006 3.81702 2.44412 3.86367 2.44412 3.92209V12.0787C2.44411 12.0923 2.44669 12.1065 2.45172 12.1191C2.45675 12.1317 2.46412 12.1431 2.47341 12.1527C2.4827 12.1623 2.49373 12.1699 2.50588 12.1752C2.51802 12.1804 2.53172 12.183 2.54486 12.183ZM2.54486 13.3334H13.4545C14.1234 13.3334 14.6663 12.772 14.6663 12.0787V3.92209C14.6663 3.22882 14.1234 2.66669 13.4537 2.66669H2.54486C1.87597 2.66669 1.33301 3.22882 1.33301 3.92209V12.0787C1.33291 12.2435 1.36419 12.4067 1.42506 12.559C1.48592 12.7112 1.57518 12.8496 1.68773 12.9661C1.80028 13.0826 1.93392 13.175 2.08099 13.2381C2.22806 13.3011 2.38569 13.3335 2.54486 13.3334Z" fill="white"/>
<path d="M2.0791 4.04998L7.20843 7.71865C7.43443 7.88038 7.70532 7.96744 7.98322 7.96768C8.26113 7.96792 8.53216 7.88132 8.75843 7.71998L13.9171 4.04065" stroke="white" stroke-width="1.5" stroke-linecap="round" stroke-linejoin="round"/>
</svg>
