<svg width="13" height="12" viewBox="0 0 13 12" fill="none" xmlns="http://www.w3.org/2000/svg">
<path fill-rule="evenodd" clip-rule="evenodd" d="M1.73199 0.00102717C1.90426 0.0120715 2.05865 0.111193 2.14039 0.263233C2.73329 1.36601 3.76043 2.37103 4.87121 2.83351C5.00581 2.12151 5.32297 1.48919 5.8014 1.0003C6.42377 0.364305 7.29129 2.76199e-06 8.3 2.76199e-06C8.96623 2.76199e-06 9.52842 0.127397 10.0034 0.380889C10.3933 0.588972 10.7036 0.870891 10.9573 1.2H12.5C12.6844 1.2 12.8538 1.30149 12.9408 1.46407C13.0279 1.62665 13.0183 1.82392 12.916 1.97735L11.799 3.65292C11.7704 5.78162 11.1447 7.65168 9.94992 9.00581C8.71972 10.4 6.92714 11.2 4.7 11.2C3.40362 11.2 2.46073 10.8587 1.72544 10.3384C1.00542 9.82891 0.512856 9.16532 0.0962349 8.59491C-0.00578735 8.45523 -0.0283678 8.27274 0.036532 8.1124C0.0944396 7.96934 0.214653 7.86205 0.360969 7.81971L0.369795 7.81689L0.426584 7.79833C0.476387 7.78193 0.546952 7.75855 0.631663 7.73038C0.800938 7.6741 1.02503 7.59931 1.24877 7.52453C1.30942 7.50427 1.37002 7.484 1.42948 7.46412C-0.249243 5.29566 -0.256463 2.37378 1.29346 0.208936C1.39395 0.0685786 1.55973 -0.0100171 1.73199 0.00102717ZM2.45884 8.1741L2.18021 8.26742C2.01292 8.32342 1.78964 8.39814 1.56574 8.47297C1.48274 8.50071 1.39963 8.52847 1.31924 8.5553C1.60932 8.91892 1.9193 9.25054 2.30306 9.5221C2.85827 9.91497 3.59639 10.2 4.7 10.2C6.67287 10.2 8.18029 9.49996 9.20008 8.34419C10.2267 7.18066 10.8 5.50798 10.8 3.5C10.8 3.40129 10.8292 3.30479 10.884 3.22265L11.5657 2.2H10.7C10.5319 2.2 10.3751 2.11553 10.2825 1.97518C10.0745 1.65957 9.83352 1.42372 9.53259 1.26312C9.23058 1.10194 8.83711 1 8.3 1C7.54139 1 6.93757 1.26903 6.51611 1.69971C6.09198 2.13312 5.82478 2.7592 5.79973 3.51653C5.79475 3.66694 5.7223 3.80711 5.60246 3.89815C5.48262 3.98918 5.32816 4.0214 5.18192 3.98586C3.79988 3.64997 2.54045 2.63067 1.70432 1.45192C0.738279 3.34571 1.0225 5.69748 2.65548 7.34838C2.7769 7.47114 2.8264 7.64786 2.7864 7.81582C2.74641 7.98379 2.62256 8.11924 2.45884 8.1741Z" fill="white"/>
</svg>
