<svg width="48" height="48" viewBox="0 0 48 48" fill="none" xmlns="http://www.w3.org/2000/svg">
<g clip-path="url(#clip0_8883_3083)">
<path d="M31.9805 34L27.9805 38L31.9805 42" stroke="black" stroke-width="1.5" stroke-linecap="round" stroke-linejoin="round"/>
<path d="M26.8277 15.1722C27.2097 15.5412 27.5144 15.9825 27.7241 16.4705C27.9337 16.9586 28.0441 17.4834 28.0487 18.0146C28.0533 18.5457 27.9521 19.0724 27.751 19.564C27.5498 20.0556 27.2528 20.5022 26.8773 20.8777C26.5017 21.2533 26.0551 21.5503 25.5635 21.7515C25.0719 21.9526 24.5452 22.0538 24.0141 22.0492C23.483 22.0445 22.9581 21.9342 22.4701 21.7246C21.982 21.5149 21.5407 21.2102 21.1717 20.8282C20.443 20.0738 20.0399 19.0633 20.049 18.0146C20.0581 16.9658 20.4788 15.9625 21.2204 15.2209C21.962 14.4793 22.9653 14.0586 24.0141 14.0495C25.0629 14.0404 26.0733 14.4435 26.8277 15.1722" stroke="#68D237" stroke-width="1.5" stroke-linecap="round" stroke-linejoin="round"/>
<path d="M13 15V21" stroke="#ADADAD" stroke-width="1.5" stroke-linecap="round" stroke-linejoin="round"/>
<path d="M35 15V21" stroke="#ADADAD" stroke-width="1.5" stroke-linecap="round" stroke-linejoin="round"/>
<path d="M22 30H10C8.93913 30 7.92172 29.5786 7.17157 28.8284C6.42143 28.0783 6 27.0609 6 26V10C6 8.93913 6.42143 7.92172 7.17157 7.17157C7.92172 6.42143 8.93913 6 10 6H38C39.0609 6 40.0783 6.42143 40.8284 7.17157C41.5786 7.92172 42 8.93913 42 10V22" stroke="#ADADAD" stroke-width="1.5" stroke-linecap="round" stroke-linejoin="round"/>
<path d="M36 30H38C39.0609 30 40.0783 30.4214 40.8284 31.1716C41.5786 31.9217 42 32.9391 42 34C42 35.0609 41.5786 36.0783 40.8284 36.8284C40.0783 37.5786 39.0609 38 38 38H28" stroke="black" stroke-width="1.5" stroke-linecap="round" stroke-linejoin="round"/>
</g>
<defs>
<clipPath id="clip0_8883_3083">
<rect width="48" height="48" fill="white"/>
</clipPath>
</defs>
</svg>
