<svg width="24" height="24" viewBox="0 0 24 24" fill="none" xmlns="http://www.w3.org/2000/svg">
<g clip-path="url(#clip0_8883_2932)">
<path d="M10.8561 13.1442C9.74953 12.048 8.85516 10.7566 8.21815 9.33518C8.15956 9.19661 8.14405 9.0436 8.17366 8.89609C8.20327 8.74858 8.27662 8.61341 8.38415 8.50818L9.20315 7.69018C9.87415 7.01918 9.87415 6.07018 9.28815 5.48418L8.11415 4.31018C7.73909 3.93524 7.23047 3.72461 6.70015 3.72461C6.16982 3.72461 5.6612 3.93524 5.28615 4.31018L4.63415 4.96218C3.89315 5.70318 3.58415 6.77218 3.78415 7.83218C4.27815 10.4452 5.79615 13.3062 8.24515 15.7552C10.6941 18.2042 13.5551 19.7222 16.1681 20.2162C17.2281 20.4162 18.2971 20.1072 19.0381 19.3662L19.6891 18.7152C20.0641 18.3401 20.2747 17.8315 20.2747 17.3012C20.2747 16.7709 20.0641 16.2622 19.6891 15.8872L18.5161 14.7142C18.2349 14.433 17.8534 14.275 17.4556 14.275C17.0579 14.275 16.6764 14.433 16.3951 14.7142L15.4921 15.6182C15.3869 15.7257 15.2517 15.7991 15.1042 15.8287C14.9567 15.8583 14.8037 15.8428 14.6651 15.7842C13.2439 15.1461 11.9526 14.2511 10.8561 13.1442V13.1442Z" stroke="#D6D6D6" stroke-width="1.5" stroke-linecap="round" stroke-linejoin="round"/>
</g>
<defs>
<clipPath id="clip0_8883_2932">
<rect width="24" height="24" fill="white"/>
</clipPath>
</defs>
</svg>
