<svg width="48" height="48" viewBox="0 0 48 48" fill="none" xmlns="http://www.w3.org/2000/svg">
<g clip-path="url(#clip0_8883_2545)">
<path d="M39.4279 19.224V8C39.4279 7.46957 39.2171 6.96086 38.8421 6.58579C38.467 6.21071 37.9583 6 37.4279 6H33.7139C33.1834 6 32.6747 6.21071 32.2997 6.58579C31.9246 6.96086 31.7139 7.46957 31.7139 8V12.612" stroke="#ADADAD" stroke-width="1.5" stroke-linecap="round" stroke-linejoin="round"/>
<path d="M6 21.428L21.396 8.232C22.1209 7.61068 23.0442 7.26917 23.999 7.26917C24.9538 7.26917 25.877 7.61068 26.602 8.232L42 21.428" stroke="#ADADAD" stroke-width="1.5" stroke-linecap="round" stroke-linejoin="round"/>
<path d="M8.57227 19.224V38C8.57227 39.0609 8.99369 40.0783 9.74384 40.8284C10.494 41.5786 11.5114 42 12.5723 42H22.0003" stroke="#ADADAD" stroke-width="1.5" stroke-linecap="round" stroke-linejoin="round"/>
<path d="M41.9997 42L38.7217 38.722" stroke="black" stroke-width="1.5" stroke-linecap="round" stroke-linejoin="round"/>
<path d="M33.448 26C34.4262 26 35.3949 26.1927 36.2986 26.567C37.2024 26.9414 38.0236 27.4901 38.7153 28.1818C39.407 28.8735 39.9557 29.6946 40.33 30.5984C40.7043 31.5021 40.897 32.4708 40.897 33.449C40.897 34.4272 40.7043 35.3959 40.33 36.2996C39.9557 37.2034 39.407 38.0245 38.7153 38.7162C38.0236 39.4079 37.2024 39.9566 36.2986 40.331C35.3949 40.7053 34.4262 40.898 33.448 40.898C31.4724 40.898 29.5777 40.1132 28.1808 38.7162C26.7838 37.3193 25.999 35.4246 25.999 33.449C25.999 31.4734 26.7838 29.5787 28.1808 28.1818C29.5777 26.7848 31.4724 26 33.448 26" stroke="black" stroke-width="1.5" stroke-linecap="round" stroke-linejoin="round"/>
<path d="M36.3458 32L32.7238 35.622L30.5498 33.448" stroke="#68D237" stroke-width="1.5" stroke-linecap="round" stroke-linejoin="round"/>
</g>
<defs>
<clipPath id="clip0_8883_2545">
<rect width="48" height="48" fill="white"/>
</clipPath>
</defs>
</svg>
