<svg width="48" height="48" viewBox="0 0 48 48" fill="none" xmlns="http://www.w3.org/2000/svg">
<path d="M38 34H36C35.4696 34 34.9609 33.7893 34.5858 33.4142C34.2107 33.0391 34 32.5304 34 32V22C34 21.4696 34.2107 20.9609 34.5858 20.5858C34.9609 20.2107 35.4696 20 36 20H38C39.0609 20 40.0783 20.4214 40.8284 21.1716C41.5786 21.9217 42 22.9391 42 24V30C42 31.0609 41.5786 32.0783 40.8284 32.8284C40.0783 33.5786 39.0609 34 38 34Z" stroke="#ADADAD" stroke-width="1.5" stroke-linecap="round" stroke-linejoin="round"/>
<path d="M12 34H10C8.93913 34 7.92172 33.5786 7.17157 32.8284C6.42143 32.0783 6 31.0609 6 30V24C6 22.9391 6.42143 21.9217 7.17157 21.1716C7.92172 20.4214 8.93913 20 10 20H12C12.5304 20 13.0391 20.2107 13.4142 20.5858C13.7893 20.9609 14 21.4696 14 22V32C14 32.5304 13.7893 33.0391 13.4142 33.4142C13.0391 33.7893 12.5304 34 12 34Z" stroke="#ADADAD" stroke-width="1.5" stroke-linecap="round" stroke-linejoin="round"/>
<path d="M37 20V19C37 15.5522 35.6304 12.2456 33.1924 9.80761C30.7544 7.36964 27.4478 6 24 6C20.5522 6 17.2456 7.36964 14.8076 9.80761C12.3696 12.2456 11 15.5522 11 19V20" stroke="#ADADAD" stroke-width="1.5" stroke-linecap="round" stroke-linejoin="round"/>
<path d="M27.75 40H32C33.0609 40 34.0783 39.5786 34.8284 38.8284C35.5786 38.0783 36 37.0609 36 36V34" stroke="black" stroke-width="1.5" stroke-linecap="round" stroke-linejoin="round"/>
<path d="M25.25 42.5H22.75C22.087 42.5 21.4511 42.2366 20.9822 41.7678C20.5134 41.2989 20.25 40.663 20.25 40C20.25 39.337 20.5134 38.7011 20.9822 38.2322C21.4511 37.7634 22.087 37.5 22.75 37.5H25.25C25.913 37.5 26.5489 37.7634 27.0178 38.2322C27.4866 38.7011 27.75 39.337 27.75 40C27.75 40.663 27.4866 41.2989 27.0178 41.7678C26.5489 42.2366 25.913 42.5 25.25 42.5V42.5Z" stroke="#68D237" stroke-width="1.5" stroke-linecap="round" stroke-linejoin="round"/>
</svg>
