<svg width="48" height="48" viewBox="0 0 48 48" fill="none" xmlns="http://www.w3.org/2000/svg">
<g clip-path="url(#clip0_8883_2489)">
<path d="M28.5697 15.428H19.4277C17.2186 15.428 15.4277 17.2189 15.4277 19.428V28.57C15.4277 30.7791 17.2186 32.57 19.4277 32.57H28.5697C30.7789 32.57 32.5697 30.7791 32.5697 28.57V19.428C32.5697 17.2189 30.7789 15.428 28.5697 15.428Z" stroke="black" stroke-width="1.5" stroke-linecap="round" stroke-linejoin="round"/>
<path d="M20.5723 20.572H27.4303V27.43H20.5723V20.572Z" stroke="#68D237" stroke-width="1.5" stroke-linecap="round" stroke-linejoin="round"/>
<path d="M32 6H16C10.4772 6 6 10.4772 6 16V32C6 37.5228 10.4772 42 16 42H32C37.5228 42 42 37.5228 42 32V16C42 10.4772 37.5228 6 32 6Z" stroke="#ADADAD" stroke-width="1.5" stroke-linecap="round" stroke-linejoin="round"/>
<path d="M36.0003 20H32.5723" stroke="black" stroke-width="1.5" stroke-linecap="round" stroke-linejoin="round"/>
<path d="M36.0003 28H32.5723" stroke="black" stroke-width="1.5" stroke-linecap="round" stroke-linejoin="round"/>
<path d="M15.428 20H12" stroke="black" stroke-width="1.5" stroke-linecap="round" stroke-linejoin="round"/>
<path d="M15.428 28H12" stroke="black" stroke-width="1.5" stroke-linecap="round" stroke-linejoin="round"/>
<path d="M20 12V15.428" stroke="black" stroke-width="1.5" stroke-linecap="round" stroke-linejoin="round"/>
<path d="M28 12V15.428" stroke="black" stroke-width="1.5" stroke-linecap="round" stroke-linejoin="round"/>
<path d="M20 32.572V36" stroke="black" stroke-width="1.5" stroke-linecap="round" stroke-linejoin="round"/>
<path d="M28 32.572V36" stroke="black" stroke-width="1.5" stroke-linecap="round" stroke-linejoin="round"/>
</g>
<defs>
<clipPath id="clip0_8883_2489">
<rect width="48" height="48" fill="white"/>
</clipPath>
</defs>
</svg>
