<svg width="18" height="18" viewBox="0 0 18 18" fill="none" xmlns="http://www.w3.org/2000/svg">
<path fill-rule="evenodd" clip-rule="evenodd" d="M2.54133 3.27781C2.68374 3.10208 2.89784 3 3.12403 3H15.75C16.8893 3 17.7239 4.06984 17.4476 5.1749L16.0996 10.5669C15.8179 11.6925 14.8609 12.5207 13.7057 12.6363C13.7057 12.6363 13.7057 12.6363 13.7057 12.6363L6.8897 13.3183C5.49376 13.457 4.2157 12.5242 3.92531 11.1514C3.92529 11.1513 3.92533 11.1515 3.92531 11.1514L2.39031 3.90543C2.34344 3.68416 2.39893 3.45354 2.54133 3.27781ZM4.04955 4.5L5.39275 10.8406C5.52445 11.4635 6.10459 11.8887 6.74036 11.8257L13.5564 11.1437C14.0811 11.0913 14.5161 10.7154 14.6444 10.2031C14.6444 10.203 14.6444 10.2032 14.6444 10.2031L15.9924 4.8111C16.0322 4.65216 15.9128 4.5 15.75 4.5H4.04955Z" fill="white"/>
<path fill-rule="evenodd" clip-rule="evenodd" d="M0 0.75C0 0.335786 0.335786 0 0.75 0H2.474C2.82701 0 3.13224 0.246177 3.20699 0.591185L3.85699 3.59118C3.9447 3.99601 3.68764 4.39528 3.28282 4.48299C2.87799 4.5707 2.47872 4.31364 2.39101 3.90882L1.8691 1.5H0.75C0.335786 1.5 0 1.16421 0 0.75Z" fill="white"/>
<path d="M5.94727 15.267C6.56437 15.2671 7.06445 15.767 7.06445 16.3842C7.06435 17.0002 6.56429 17.5002 5.94824 17.5004C5.3373 17.5004 4.83101 17.0053 4.83301 16.3832C4.83088 15.7632 5.33494 15.267 5.94727 15.267ZM14.3643 15.267C14.9814 15.2671 15.4814 15.767 15.4814 16.3842C15.4813 17.0002 14.9813 17.5003 14.3652 17.5004C13.7543 17.5004 13.248 17.0053 13.25 16.3832C13.2479 15.7632 13.7519 15.267 14.3643 15.267Z" fill="white"/>
</svg>
