<svg width="18" height="14" viewBox="0 0 18 14" fill="none" xmlns="http://www.w3.org/2000/svg">
<path fill-rule="evenodd" clip-rule="evenodd" d="M5.00195 1.25018C5.00195 0.83597 5.33774 0.500183 5.75195 0.500183H16.7565C17.1707 0.500183 17.5065 0.83597 17.5065 1.25018C17.5065 1.6644 17.1707 2.00018 16.7565 2.00018H5.75195C5.33774 2.00018 5.00195 1.6644 5.00195 1.25018Z" fill="black"/>
<path fill-rule="evenodd" clip-rule="evenodd" d="M5.00195 6.81354C5.00195 6.39932 5.33774 6.06354 5.75195 6.06354H16.7565C17.1707 6.06354 17.5065 6.39932 17.5065 6.81354C17.5065 7.22775 17.1707 7.56354 16.7565 7.56354H5.75195C5.33774 7.56354 5.00195 7.22775 5.00195 6.81354Z" fill="black"/>
<path fill-rule="evenodd" clip-rule="evenodd" d="M5.00195 12.3768C5.00195 11.9626 5.33774 11.6268 5.75195 11.6268H16.7565C17.1707 11.6268 17.5065 11.9626 17.5065 12.3768C17.5065 12.791 17.1707 13.1268 16.7565 13.1268H5.75195C5.33774 13.1268 5.00195 12.791 5.00195 12.3768Z" fill="black"/>
<path fill-rule="evenodd" clip-rule="evenodd" d="M0 1.25021C0 0.559737 0.559737 0 1.25021 0C1.94068 0 2.50042 0.559737 2.50042 1.25021C2.50042 1.94068 1.94068 2.50042 1.25021 2.50042C0.559737 2.50042 0 1.94068 0 1.25021Z" fill="black"/>
<path fill-rule="evenodd" clip-rule="evenodd" d="M0 6.8135C0 6.12303 0.559737 5.56329 1.25021 5.56329C1.94068 5.56329 2.50042 6.12303 2.50042 6.8135C2.50042 7.50397 1.94068 8.06371 1.25021 8.06371C0.559737 8.06371 0 7.50397 0 6.8135Z" fill="black"/>
<path fill-rule="evenodd" clip-rule="evenodd" d="M0 12.3769C0 11.6864 0.559737 11.1266 1.25021 11.1266C1.94068 11.1266 2.50042 11.6864 2.50042 12.3769C2.50042 13.0673 1.94068 13.6271 1.25021 13.6271C0.559737 13.6271 0 13.0673 0 12.3769Z" fill="black"/>
</svg>
