<svg width="14" height="13" viewBox="0 0 14 13" fill="none" xmlns="http://www.w3.org/2000/svg">
<path fill-rule="evenodd" clip-rule="evenodd" d="M6.83588 1C6.6457 1 6.47196 1.1078 6.38751 1.2782L6.3865 1.28025L4.96257 4.12076C4.88913 4.26726 4.74856 4.36847 4.58634 4.39166L1.43236 4.84252L1.431 4.84271C1.24094 4.86935 1.08285 5.00234 1.02408 5.18505C0.965316 5.36775 1.01622 5.56797 1.15511 5.70042L1.15599 5.70126L3.4276 7.87817C3.54787 7.99342 3.60284 8.16101 3.57421 8.3251L3.03465 11.4177L3.03439 11.4192C3.00104 11.607 3.07736 11.7974 3.23118 11.9102C3.385 12.023 3.58957 12.0386 3.75866 11.9503L3.76057 11.9493L6.60642 10.4794C6.75039 10.405 6.92147 10.405 7.06542 10.4794L9.91128 11.95L9.9131 11.951C10.0822 12.0392 10.2868 12.0237 10.4406 11.9109C10.5944 11.7981 10.6707 11.6077 10.6374 11.4199L10.6371 11.4184L10.0975 8.32509C10.0689 8.16099 10.1239 7.99342 10.2442 7.87817L12.5158 5.70126L12.5167 5.70042C12.6555 5.56797 12.7064 5.36775 12.6477 5.18505C12.5889 5.00234 12.4308 4.86935 12.2408 4.84271L12.2394 4.84252L9.08543 4.39166C8.9232 4.36847 8.78264 4.26726 8.7092 4.12076L7.28425 1.27821C7.1998 1.10781 7.02606 1 6.83588 1ZM5.49206 0.833042C5.74547 0.322762 6.26607 0 6.83588 0C7.40567 0 7.92624 0.32273 8.17967 0.832965C8.17986 0.83336 8.18006 0.833755 8.18026 0.83415L9.48592 3.43875L12.3796 3.85239C12.3798 3.85242 12.3801 3.85246 12.3803 3.85249C12.9499 3.93261 13.4235 4.33127 13.5996 4.87883C13.7757 5.42625 13.6234 6.02612 13.2077 6.42326C13.2077 6.42327 13.2077 6.42325 13.2077 6.42326C13.2074 6.42353 13.2071 6.42383 13.2068 6.4241L11.1285 8.41578L11.622 11.245C11.622 11.2453 11.6221 11.2456 11.6221 11.2459C11.7217 11.8088 11.4929 12.3793 11.0319 12.7173C10.5711 13.0553 9.95822 13.1021 9.45143 12.838C9.45107 12.8378 9.45072 12.8377 9.45037 12.8375L6.83583 11.4864L4.2214 12.8368C4.22099 12.837 4.22058 12.8372 4.22017 12.8375C3.71341 13.1014 3.10067 13.0546 2.63983 12.7167C2.17885 12.3786 1.95002 11.808 2.04965 11.2452C2.0497 11.2449 2.04975 11.2446 2.0498 11.2444L2.54329 8.41577L0.464972 6.4241C0.464786 6.42393 0.4646 6.42375 0.464414 6.42357C0.0483955 6.02643 -0.104009 5.42639 0.072122 4.87883C0.248259 4.33125 0.721934 3.93259 1.2915 3.85249C1.29173 3.85245 1.29197 3.85242 1.2922 3.85239L4.18584 3.43875L5.49206 0.833042Z" fill="#858585"/>
</svg>
